<?xml version="1.0" encoding="utf-8"?>
<!-- Generator: Adobe Illustrator 25.2.3, SVG Export Plug-In . SVG Version: 6.00 Build 0)  -->
<svg version="1.1" id="Layer_1" xmlns="http://www.w3.org/2000/svg" xmlns:xlink="http://www.w3.org/1999/xlink" x="0px" y="0px"
	 viewBox="0 0 398.72 124.17" style="enable-background:new 0 0 398.72 124.17;" xml:space="preserve">
<style type="text/css">
	.st0{fill:none;}
	.st1{fill:#414042;}
	.st2{font-family:'HelveticaNeue-Bold';}
	.st3{font-size:43.5765px;}
	.st4{font-family:'HelveticaNeue-Italic';}
	.st5{font-size:42px;}
	.st6{fill:none;stroke:#414042;stroke-width:5;}
	.st7{fill:none;stroke:#414042;stroke-width:5;stroke-linecap:round;}
	.st8{fill:#EC008C;}
	.st9{fill:#FFFFFF;}
	.st10{font-family:'Helvetica-Bold';}
	.st11{font-size:15.6797px;}
</style>
<rect x="129.45" y="29.47" class="st0" width="481.46" height="244.81"/>
<text transform="matrix(1 0 0 1 129.4513 60.5857)"><tspan x="0" y="0" class="st1 st2 st3">GSAPP CDP</tspan><tspan x="0" y="40" class="st1 st4 st5">Smorgasbord</tspan></text>
<path class="st6" d="M30.59,59.24l87.15,22.92"/>
<path class="st6" d="M85.56,27.16l-22.92,87.15"/>
<path class="st7" d="M8.76,20.31c5.09-9.59,11.48-12.01,22-11.84c10.55,0.17,18.51,11.07,22.17,19.91
	c2.39,5.77,4.1,17.52-3.17,20.35c-4.74,1.85-10.91,3.44-10.91-3.16c0-6.35,5.13-6.91,10.25-6.27c4.22,0.53,9.16,9.01,9.5,12.98
	c0.92,10.56-5.5,19.47-5.5,29.61"/>
<rect x="9.94" y="16.21" transform="matrix(0.9189 -0.3945 0.3945 0.9189 -7.462 16.6376)" class="st8" width="53.58" height="20.51"/>
<text transform="matrix(0.9189 -0.3945 0.3945 0.9189 19.0007 40.0337)" class="st9 st10 st11">BETA</text>
</svg>
